<?xml version="1.0" ?>

<!DOCTYPE svg  PUBLIC '-//W3C//DTD SVG 1.1//EN'  'http://www.w3.org/Graphics/SVG/1.1/DTD/svg11.dtd'>

<!-- Uploaded to: SVG Repo, www.svgrepo.com, Generator: SVG Repo Mixer Tools -->
<svg fill="#000000" width="30px" height="30px" viewBox="0 0 32 32" style="fill-rule:evenodd;clip-rule:evenodd;stroke-linejoin:round;stroke-miterlimit:2;" version="1.1" xml:space="preserve" xmlns="http://www.w3.org/2000/svg" xmlns:serif="http://www.serif.com/" xmlns:xlink="http://www.w3.org/1999/xlink">

<g id="Layer1">

<path d="M14,17c-0,-0.552 -0.448,-1 -1,-1l-10,0c-0.552,0 -1,0.448 -1,1l0,9c0,0.552 0.448,1 1,1l1.382,0c-0,-0 0.724,1.447 0.724,1.447c0.143,0.288 0.417,0.489 0.734,0.54c0.317,0.052 0.64,-0.053 0.867,-0.28l1.707,-1.707c0,0 4.586,0 4.586,0c0.552,0 1,-0.448 1,-1l-0,-9Zm5,-1c-0.552,0 -1,0.448 -1,1l-0,9c0,0.552 0.448,1 1,1l4.586,0c-0,-0 1.707,1.707 1.707,1.707c0.227,0.227 0.55,0.332 0.867,0.28c0.317,-0.051 0.591,-0.252 0.734,-0.54l0.724,-1.447c0,0 1.382,0 1.382,0c0.552,0 1,-0.448 1,-1l-0,-9c0,-0.552 -0.448,-1 -1,-1l-10,0Zm-13,8l4,0c0.552,0 1,-0.448 1,-1c0,-0.552 -0.448,-1 -1,-1l-4,0c-0.552,0 -1,0.448 -1,1c0,0.552 0.448,1 1,1Zm20,-2l-4,0c-0.552,0 -1,0.448 -1,1c0,0.552 0.448,1 1,1l4,0c0.552,0 1,-0.448 1,-1c0,-0.552 -0.448,-1 -1,-1Zm-20,-1l4,0c0.552,0 1,-0.448 1,-1c0,-0.552 -0.448,-1 -1,-1l-4,0c-0.552,0 -1,0.448 -1,1c0,0.552 0.448,1 1,1Zm20,-2l-4,0c-0.552,0 -1,0.448 -1,1c0,0.552 0.448,1 1,1l4,0c0.552,0 1,-0.448 1,-1c0,-0.552 -0.448,-1 -1,-1Zm-2,-15c-0,-0.552 -0.448,-1 -1,-1l-14,0c-0.552,0 -1,0.448 -1,1l-0,9c0,0.552 0.447,0.999 0.999,1l4.466,0.007c0,-0 1.704,2.549 1.704,2.549c0.185,0.277 0.497,0.444 0.831,0.444c0.334,0 0.646,-0.167 0.831,-0.444l1.704,-2.549c-0,-0 4.466,-0.007 4.466,-0.007c0.552,-0.001 0.999,-0.448 0.999,-1l-0,-9Zm-11,7l6,0c0.552,-0 1,-0.448 1,-1c-0,-0.552 -0.448,-1 -1,-1l-6,0c-0.552,-0 -1,0.448 -1,1c-0,0.552 0.448,1 1,1Zm0,-3l6,0c0.552,0 1,-0.448 1,-1c0,-0.552 -0.448,-1 -1,-1l-6,0c-0.552,0 -1,0.448 -1,1c0,0.552 0.448,1 1,1Z"/>

</g>

</svg>